PathFileType	4	(X/Y/Z)	Patient4_TMGait_0pt3_01_right_04.trc.trc
DataRate	CameraRate	NumFrames	NumMarkers	Units	OrigDataRate	OrigDataStartFrame	OrigNumFrames
52.830188679245	52.830188679245	5	33	mm	52.830188679245	53	       141
Frame#	Time	Sacral			L.Shoulder			Chest			R.Shoulder			Neck			R.ASIS			L.ASIS			R.Thigh.Superior			R.Thigh.Lateral			R.Thigh.Inferior			R.Patella			L.Thigh.Superior			L.Thigh.Lateral			L.Thigh.Inferior			L.Patella			L.Shank.Superior			L.Shank.Lateral			L.Shank.Inferior			R.Shank.Superior			R.Shank.Lateral			R.Shank.Inferior			R.Heel			R.Midfoot.Superior			R.Midfoot.Lateral			R.Toe			L.Heel			L.Midfoot.Lateral			L.Midfoot.Superior			L.Toe			L.Elbow			L.Wrist			R.Elbow			R.Wrist			
		X1	Y1	Z1	X2	Y2	Z2	X3	Y3	Z3	X4	Y4	Z4	X5	Y5	Z5	X6	Y6	Z6	X7	Y7	Z7	X8	Y8	Z8	X9	Y9	Z9	X10	Y10	Z10	X11	Y11	Z11	X12	Y12	Z12	X13	Y13	Z13	X14	Y14	Z14	X15	Y15	Z15	X16	Y16	Z16	X17	Y17	Z17	X18	Y18	Z18	X19	Y19	Z19	X20	Y20	Z20	X21	Y21	Z21	X22	Y22	Z22	X23	Y23	Z23	X24	Y24	Z24	X25	Y25	Z25	X26	Y26	Z26	X27	Y27	Z27	X28	Y28	Z28	X29	Y29	Z29	X30	Y30	Z30	X31	Y31	Z31	X32	Y32	Z32	X33	Y33	Z33	

53	6.874285714286	835.641676899844	991.283224155113	560.414852507252	1003.146771020651	1426.881257965506	375.732227169149	1104.637540024279	1363.064269126270	539.055805064901	1015.161560012882	1434.172789578353	711.057492593571	987.618959496979	1489.825754485465	532.278071038253	1069.469315326879	941.614091842724	680.017094391348	1054.353191740881	957.276191593349	406.086751837875	1116.296182489706	739.883992938508	644.581176239280	1034.954809196705	624.390765919626	694.812464388565	1114.626862847716	577.276456606533	615.050926462828	1115.093988830713	484.433226401685	616.135983756505	1141.809186110819	771.643609060558	442.679215637332	1102.076331168780	643.133288611327	365.087292353870	1199.954565647436	581.528586993358	436.623217423575	1212.651377155989	492.307394107845	426.789655053389	1148.154474140838	426.993438024878	411.402126272632	1008.842811053120	380.235239102622	362.014470235227	1006.829701550675	246.619725929081	406.047550972604	1076.976865003856	396.619977237296	617.365358379499	996.281614146760	296.581493713362	672.353367394093	1029.611867079298	201.581224104111	605.830146189631	883.682575581179	44.152176565163	565.193530705394	1053.750239031819	97.042813219687	611.079468541226	962.850099538379	37.250534342310	644.070930290502	1171.573060225715	42.768481356860	646.146196855631	824.418790858925	166.818683000834	445.763731323282	879.428400614507	133.804096704405	358.433299501435	984.104119250223	145.500823225335	376.162576094565	1064.916680389233	42.231097343028	331.791446408891	971.630769175672	1069.605127563567	275.770172466109	1028.388879941255	814.512410589542	277.226709383899	1081.491097081176	1100.666343969022	848.663128110146	1333.404412704059	1048.333109710913	849.436732579943	
54	6.893214285714	834.911900791291	991.045625603364	563.358572098004	1000.838479460128	1425.728422333462	376.135304555692	1104.537742057872	1362.200860074734	538.189565965930	1017.774902060244	1433.961432915052	711.282412813326	987.508634797955	1489.226714227483	532.337716485146	1069.735389787490	940.836407675209	680.600238907833	1052.014348979415	956.839969517353	406.792848295198	1115.587875502893	738.943692352736	644.743656250359	1034.401907990283	623.479522375402	695.400603274066	1113.479407631538	576.306602545983	615.086456353125	1113.649230926355	483.145091261152	616.104279196844	1140.680854608151	773.027415052999	443.599238251401	1102.491831424011	644.265484655563	365.965022267984	1200.993741997139	583.963079515696	437.484845733013	1215.857939821531	495.926681621702	427.608908666020	1154.823728467174	428.944249219302	412.019579786468	1018.727255828963	374.147496973149	362.904300909711	1024.985024385589	240.634254219088	406.905345299872	1074.549267222012	395.537382811822	617.379368074254	993.147531679784	296.088184420071	672.469039971992	1025.306751552967	200.921283938968	605.723231691932	878.004768945501	44.162887205444	565.277851298532	1048.093469197867	96.979156140812	611.080549293203	957.175381369370	37.260531190984	644.131965068092	1165.895781217062	42.634021505157	646.191418583031	848.018245718447	148.201441400420	446.881787469301	905.376602219631	120.174429610636	359.173110368426	1008.925576571575	139.432706593442	376.910835480833	1097.239126873757	43.161514727713	331.599552427161	959.167310694189	1069.461623116956	277.558788817732	1001.411594256209	811.326559283322	280.533336151916	1092.892028826281	1102.644316864006	848.249574434559	1346.946180474005	1064.846068371613	843.828327664402	
55	6.912142857143	834.280986260023	991.046592106554	566.136086287417	998.512176437339	1424.816257749158	376.377462106705	1104.450523080688	1361.502996119487	537.069947544132	1020.486631533577	1433.923450998193	711.237139162003	987.443123828351	1488.797225104776	532.194357214105	1069.961261903596	940.171309970254	680.905769760209	1049.689356161116	956.548131804918	407.224440381186	1114.490134110605	738.011565473785	644.683967039057	1033.340763324092	622.717187412885	695.888920685714	1111.674474252901	575.368666635122	614.984501706855	1111.391500104853	482.011010800867	615.970454823383	1139.032915155606	774.132148878332	444.170676744701	1102.050216911671	645.250680132149	366.399078175483	1200.968883220161	586.002490365809	437.922189039715	1217.930199134973	499.407997837505	428.025259623896	1160.638802237581	430.890697127515	412.288551290626	1028.588201291501	367.689754812163	363.111770978576	1043.428208658153	234.771478398862	407.304355672496	1071.531291239904	394.608385871721	617.377012972363	989.572561544879	295.634217331621	672.571290797776	1020.732691330738	200.343164518032	605.631943624405	872.328806034822	44.150630199021	565.385258383942	1042.400983124584	96.907038785492	611.070690170593	951.487112830340	37.260008417164	644.202537144696	1160.200350371604	42.538127649657	646.234320176471	872.840488915257	129.920610330776	447.194080322540	932.500092277512	106.627634376321	359.456874180705	1034.415424920059	133.390345532260	377.428210600161	1129.907242126197	44.337572094577	331.942008771494	946.177953215398	1070.018226132784	279.101722016409	975.883509976321	810.134432771518	283.671538630800	1103.901080154060	1104.973850581328	847.530390159528	1359.058842113426	1081.336523130749	837.719916675155	
56	6.931071428571	833.770112531452	991.325065508446	568.736427867640	996.169928905122	1424.194285693546	376.459260022159	1104.371933902914	1361.026158299512	535.701276334704	1023.270508527439	1434.105012187441	710.916544796518	987.413517131663	1488.579884162025	531.854454030105	1070.167534642432	939.654058752299	680.937653892342	1047.399039852917	956.452182478989	407.385090033207	1112.999780722927	737.112048393926	644.425702649796	1031.718215493858	622.146198235250	696.284427543749	1109.150363278221	574.486742140046	614.770548516889	1108.244690339946	481.070885990267	615.757604775201	1136.926975217588	775.005714467084	444.399394474293	1100.812859543424	646.127581601355	366.371817320475	1199.958265199129	587.670261543694	437.910157218519	1218.912305434257	502.751498246947	428.031258343144	1165.544557929469	432.885688028956	412.230206491924	1038.340315083175	361.195987455969	362.631150753742	1061.793039394910	229.405216133500	407.285617593865	1067.861993617182	393.868966051293	617.372024892585	985.510282173564	295.245482455211	672.674428102086	1015.864302728848	199.874162490191	605.568316887544	866.650611019003	44.116974749000	565.517605255427	1036.676037034905	96.829999524893	611.055541872626	945.783780375543	37.249239896248	644.281024696695	1154.487030272912	42.478569405596	646.275549796395	898.363233155210	112.730853144226	446.722050232743	960.274168496458	93.795387395078	359.334023939203	1060.059889854278	127.802895981453	377.770634020562	1162.216509980384	45.960690309605	332.941788690835	932.887236729209	1071.291044171343	280.494389448215	951.998334241639	810.611164272585	286.612868500976	1114.436035381901	1107.663128651652	846.520054889328	1369.731214518821	1097.727443886066	831.193530365160	
57	6.950000000000	833.382825929726	991.900858517732	571.134403124081	993.825241635936	1423.886305494998	376.378421938160	1104.299800256974	1360.803638672536	534.093803493236	1026.092479055362	1434.531106589884	710.318517252981	987.409988959003	1488.597510261925	531.322240922769	1070.371745130800	939.306353507644	680.704798482365	1045.166119794380	956.585545971371	407.282630183963	1111.124885475848	736.262712576024	643.990704809188	1029.502059334433	621.796387484825	696.590830449075	1105.873193456788	573.678801173998	614.468536121858	1104.169890685756	480.354303120911	615.485519927829	1134.446886577968	775.693626781861	444.289274569633	1098.856228803906	646.925964187522	365.885835024631	1198.063434863839	588.989805964123	437.432309012336	1218.865597755713	505.945216310580	427.634549883653	1169.497921626944	434.954175751712	411.873573164954	1047.848311513119	354.959265003472	361.495985388475	1079.675129840505	224.820156286420	406.908479632199	1063.508214283347	393.344777841235	617.371871053366	980.935074493415	294.944144169976	672.787572627376	1010.690656075496	199.535145341292	605.538890902791	860.964701076366	44.064114700711	565.672392519773	1030.924003317273	96.753676836338	611.042311835225	940.064253491555	37.228910436503	644.365030574580	1148.756432639498	42.453524868447	646.314203494385	923.962073176310	97.214709495150	445.527274706945	988.089178189877	82.180825113081	358.868156316720	1085.303404774344	123.012674556069	377.994996540818	1193.490884315347	48.180575008358	334.661038814547	919.573367068524	1073.244168938281	281.815693896929	929.895827436307	812.409850653138	289.334987542433	1124.433662779269	1110.696366516453	845.225462488787	1378.983791173851	1113.927787115937	824.330467504937	
